<svg aria-hidden="true" style="position: absolute; width: 0; height: 0; overflow: hidden;" version="1.1" xmlns="http://www.w3.org/2000/svg" xmlns:xlink="http://www.w3.org/1999/xlink">
<defs><symbol id="icon-arrow-right" viewBox="0 0 32 32">
<path d="M22.173 17.116l-9.969 10.044c-0.295 0.297-0.704 0.481-1.156 0.481-0.9 0-1.63-0.73-1.63-1.63 0-0.448 0.181-0.854 0.473-1.148l8.82-8.887-8.887-8.82c-0.297-0.295-0.481-0.704-0.481-1.156 0-0.9 0.73-1.63 1.63-1.63 0.448 0 0.854 0.181 1.149 0.474l10.042 9.969c0.299 0.295 0.483 0.704 0.483 1.156 0 0.448-0.181 0.854-0.475 1.148l0-0z"></path>
</symbol><symbol id="icon-close" viewBox="0 0 32 32"><path d="M26.667 7.303l-1.97-1.97-7.808 7.808-7.808-7.808-1.97 1.97 7.808 7.808-7.808 7.808 1.97 1.97 7.808-7.808 7.808 7.808 1.97-1.97-7.808-7.808 7.808-7.808z"/></symbol>
</defs>
</svg>
